<mxfile host="app.diagrams.net" modified="2023-03-27T02:54:58.664Z" agent="Mozilla/5.0 (Windows NT 10.0; Win64; x64) AppleWebKit/537.36 (KHTML, like Gecko) Chrome/111.0.0.0 Safari/537.36" version="21.1.1" etag="EWcnWqNkhypGg7Ks7IBB" type="device">
  <diagram id="XTzNQj3CM4zLMAmAc9lO" name="Page-1">
    <mxGraphModel dx="478" dy="295" grid="1" gridSize="10" guides="1" tooltips="1" connect="1" arrows="1" fold="1" page="1" pageScale="1" pageWidth="1600" pageHeight="900" math="0" shadow="0">
      <root>
        <mxCell id="0" />
        <mxCell id="1" parent="0" />
        <mxCell id="RVE-PCUmZEAax3Mzdtfw-5" value="Location" style="swimlane;fontStyle=1;align=center;verticalAlign=top;childLayout=stackLayout;horizontal=1;startSize=26;horizontalStack=0;resizeParent=1;resizeParentMax=0;resizeLast=0;collapsible=1;marginBottom=0;whiteSpace=wrap;html=1;" vertex="1" parent="1">
          <mxGeometry x="630" y="320" width="130" height="148" as="geometry" />
        </mxCell>
        <mxCell id="RVE-PCUmZEAax3Mzdtfw-6" value="- degrees : int&lt;br&gt;- minutes : float&lt;br&gt;- direction : char" style="text;strokeColor=none;fillColor=none;align=left;verticalAlign=top;spacingLeft=4;spacingRight=4;overflow=hidden;rotatable=0;points=[[0,0.5],[1,0.5]];portConstraint=eastwest;whiteSpace=wrap;html=1;" vertex="1" parent="RVE-PCUmZEAax3Mzdtfw-5">
          <mxGeometry y="26" width="130" height="54" as="geometry" />
        </mxCell>
        <mxCell id="RVE-PCUmZEAax3Mzdtfw-7" value="" style="line;strokeWidth=1;fillColor=none;align=left;verticalAlign=middle;spacingTop=-1;spacingLeft=3;spacingRight=3;rotatable=0;labelPosition=right;points=[];portConstraint=eastwest;strokeColor=inherit;" vertex="1" parent="RVE-PCUmZEAax3Mzdtfw-5">
          <mxGeometry y="80" width="130" height="8" as="geometry" />
        </mxCell>
        <mxCell id="RVE-PCUmZEAax3Mzdtfw-8" value="+ Location()&lt;br&gt;+ getPos() : void&lt;br&gt;+ display() : void&amp;nbsp;" style="text;strokeColor=none;fillColor=none;align=left;verticalAlign=top;spacingLeft=4;spacingRight=4;overflow=hidden;rotatable=0;points=[[0,0.5],[1,0.5]];portConstraint=eastwest;whiteSpace=wrap;html=1;" vertex="1" parent="RVE-PCUmZEAax3Mzdtfw-5">
          <mxGeometry y="88" width="130" height="60" as="geometry" />
        </mxCell>
        <mxCell id="RVE-PCUmZEAax3Mzdtfw-9" value="Yacht" style="swimlane;fontStyle=1;align=center;verticalAlign=top;childLayout=stackLayout;horizontal=1;startSize=26;horizontalStack=0;resizeParent=1;resizeParentMax=0;resizeLast=0;collapsible=1;marginBottom=0;whiteSpace=wrap;html=1;" vertex="1" parent="1">
          <mxGeometry x="820" y="320" width="140" height="170" as="geometry" />
        </mxCell>
        <mxCell id="RVE-PCUmZEAax3Mzdtfw-10" value="- &lt;u&gt;counter : int&lt;/u&gt;&lt;br&gt;- serialNumber : int&lt;br&gt;- latitude : Location&amp;nbsp;&lt;br&gt;- longitude : Location" style="text;strokeColor=none;fillColor=none;align=left;verticalAlign=top;spacingLeft=4;spacingRight=4;overflow=hidden;rotatable=0;points=[[0,0.5],[1,0.5]];portConstraint=eastwest;whiteSpace=wrap;html=1;" vertex="1" parent="RVE-PCUmZEAax3Mzdtfw-9">
          <mxGeometry y="26" width="140" height="64" as="geometry" />
        </mxCell>
        <mxCell id="RVE-PCUmZEAax3Mzdtfw-11" value="" style="line;strokeWidth=1;fillColor=none;align=left;verticalAlign=middle;spacingTop=-1;spacingLeft=3;spacingRight=3;rotatable=0;labelPosition=right;points=[];portConstraint=eastwest;strokeColor=inherit;" vertex="1" parent="RVE-PCUmZEAax3Mzdtfw-9">
          <mxGeometry y="90" width="140" height="8" as="geometry" />
        </mxCell>
        <mxCell id="RVE-PCUmZEAax3Mzdtfw-12" value="+ &lt;u&gt;resetCounter() : void&lt;/u&gt;&lt;br&gt;+ Yacht()&lt;br&gt;+ getPos() : void&lt;br&gt;+ display() : void&amp;nbsp;" style="text;strokeColor=none;fillColor=none;align=left;verticalAlign=top;spacingLeft=4;spacingRight=4;overflow=hidden;rotatable=0;points=[[0,0.5],[1,0.5]];portConstraint=eastwest;whiteSpace=wrap;html=1;" vertex="1" parent="RVE-PCUmZEAax3Mzdtfw-9">
          <mxGeometry y="98" width="140" height="72" as="geometry" />
        </mxCell>
        <mxCell id="RVE-PCUmZEAax3Mzdtfw-13" value="" style="endArrow=none;html=1;rounded=0;exitX=1.005;exitY=1.056;exitDx=0;exitDy=0;exitPerimeter=0;entryX=0.002;entryY=1.06;entryDx=0;entryDy=0;entryPerimeter=0;strokeWidth=1;" edge="1" parent="1" source="RVE-PCUmZEAax3Mzdtfw-14" target="RVE-PCUmZEAax3Mzdtfw-10">
          <mxGeometry width="50" height="50" relative="1" as="geometry">
            <mxPoint x="790" y="410" as="sourcePoint" />
            <mxPoint x="840" y="360" as="targetPoint" />
          </mxGeometry>
        </mxCell>
        <mxCell id="RVE-PCUmZEAax3Mzdtfw-15" value="" style="endArrow=none;html=1;rounded=0;exitX=0.999;exitY=0.472;exitDx=0;exitDy=0;exitPerimeter=0;entryX=0;entryY=0.5;entryDx=0;entryDy=0;strokeWidth=1;" edge="1" parent="1" source="RVE-PCUmZEAax3Mzdtfw-7" target="RVE-PCUmZEAax3Mzdtfw-14">
          <mxGeometry width="50" height="50" relative="1" as="geometry">
            <mxPoint x="761" y="423" as="sourcePoint" />
            <mxPoint x="880" y="434" as="targetPoint" />
          </mxGeometry>
        </mxCell>
        <mxCell id="RVE-PCUmZEAax3Mzdtfw-14" value="" style="rhombus;whiteSpace=wrap;html=1;fillColor=#000000;" vertex="1" parent="1">
          <mxGeometry x="800" y="397" width="20" height="14" as="geometry" />
        </mxCell>
        <mxCell id="RVE-PCUmZEAax3Mzdtfw-16" value="2" style="text;html=1;strokeColor=none;fillColor=none;align=center;verticalAlign=middle;whiteSpace=wrap;rounded=0;" vertex="1" parent="1">
          <mxGeometry x="740" y="379" width="60" height="30" as="geometry" />
        </mxCell>
      </root>
    </mxGraphModel>
  </diagram>
</mxfile>
